<?xml version="1.0" encoding="utf-8"?>
<svg xmlns="http://www.w3.org/2000/svg" xmlns:xlink="http://www.w3.org/1999/xlink" width="600" height="400" viewBox="0 0 2400 1600">
<defs>
  <clipPath id="clip190">
    <rect x="0" y="0" width="2400" height="1600"/>
  </clipPath>
</defs>
<path clip-path="url(#clip190)" d="
M0 1600 L2400 1600 L2400 0 L0 0  Z
  " fill="#ffffff" fill-rule="evenodd" fill-opacity="1"/>
<defs>
  <clipPath id="clip191">
    <rect x="480" y="0" width="1681" height="1600"/>
  </clipPath>
</defs>
<path clip-path="url(#clip190)" d="
M141.853 1486.45 L2352.76 1486.45 L2352.76 47.2441 L141.853 47.2441  Z
  " fill="#ffffff" fill-rule="evenodd" fill-opacity="1"/>
<defs>
  <clipPath id="clip192">
    <rect x="141" y="47" width="2212" height="1440"/>
  </clipPath>
</defs>
<polyline clip-path="url(#clip192)" style="stroke:#000000; stroke-linecap:round; stroke-linejoin:round; stroke-width:2; stroke-opacity:0.1; fill:none" points="
  165.072,1486.45 165.072,47.2441 
  "/>
<polyline clip-path="url(#clip192)" style="stroke:#000000; stroke-linecap:round; stroke-linejoin:round; stroke-width:2; stroke-opacity:0.1; fill:none" points="
  656.996,1486.45 656.996,47.2441 
  "/>
<polyline clip-path="url(#clip192)" style="stroke:#000000; stroke-linecap:round; stroke-linejoin:round; stroke-width:2; stroke-opacity:0.1; fill:none" points="
  1148.92,1486.45 1148.92,47.2441 
  "/>
<polyline clip-path="url(#clip192)" style="stroke:#000000; stroke-linecap:round; stroke-linejoin:round; stroke-width:2; stroke-opacity:0.1; fill:none" points="
  1640.84,1486.45 1640.84,47.2441 
  "/>
<polyline clip-path="url(#clip192)" style="stroke:#000000; stroke-linecap:round; stroke-linejoin:round; stroke-width:2; stroke-opacity:0.1; fill:none" points="
  2132.77,1486.45 2132.77,47.2441 
  "/>
<polyline clip-path="url(#clip190)" style="stroke:#000000; stroke-linecap:round; stroke-linejoin:round; stroke-width:4; stroke-opacity:1; fill:none" points="
  141.853,1486.45 2352.76,1486.45 
  "/>
<polyline clip-path="url(#clip190)" style="stroke:#000000; stroke-linecap:round; stroke-linejoin:round; stroke-width:4; stroke-opacity:1; fill:none" points="
  165.072,1486.45 165.072,1467.55 
  "/>
<polyline clip-path="url(#clip190)" style="stroke:#000000; stroke-linecap:round; stroke-linejoin:round; stroke-width:4; stroke-opacity:1; fill:none" points="
  656.996,1486.45 656.996,1467.55 
  "/>
<polyline clip-path="url(#clip190)" style="stroke:#000000; stroke-linecap:round; stroke-linejoin:round; stroke-width:4; stroke-opacity:1; fill:none" points="
  1148.92,1486.45 1148.92,1467.55 
  "/>
<polyline clip-path="url(#clip190)" style="stroke:#000000; stroke-linecap:round; stroke-linejoin:round; stroke-width:4; stroke-opacity:1; fill:none" points="
  1640.84,1486.45 1640.84,1467.55 
  "/>
<polyline clip-path="url(#clip190)" style="stroke:#000000; stroke-linecap:round; stroke-linejoin:round; stroke-width:4; stroke-opacity:1; fill:none" points="
  2132.77,1486.45 2132.77,1467.55 
  "/>
<path clip-path="url(#clip190)" d="M133.972 1532.02 L163.648 1532.02 L163.648 1535.95 L133.972 1535.95 L133.972 1532.02 Z" fill="#000000" fill-rule="evenodd" fill-opacity="1" /><path clip-path="url(#clip190)" d="M186.588 1518.36 L174.782 1536.81 L186.588 1536.81 L186.588 1518.36 M185.361 1514.29 L191.241 1514.29 L191.241 1536.81 L196.171 1536.81 L196.171 1540.7 L191.241 1540.7 L191.241 1548.85 L186.588 1548.85 L186.588 1540.7 L170.986 1540.7 L170.986 1536.19 L185.361 1514.29 Z" fill="#000000" fill-rule="evenodd" fill-opacity="1" /><path clip-path="url(#clip190)" d="M626.938 1532.02 L656.614 1532.02 L656.614 1535.95 L626.938 1535.95 L626.938 1532.02 Z" fill="#000000" fill-rule="evenodd" fill-opacity="1" /><path clip-path="url(#clip190)" d="M670.734 1544.91 L687.053 1544.91 L687.053 1548.85 L665.109 1548.85 L665.109 1544.91 Q667.771 1542.16 672.354 1537.53 Q676.961 1532.88 678.141 1531.53 Q680.387 1529.01 681.266 1527.27 Q682.169 1525.51 682.169 1523.82 Q682.169 1521.07 680.225 1519.33 Q678.303 1517.6 675.202 1517.6 Q673.003 1517.6 670.549 1518.36 Q668.118 1519.13 665.341 1520.68 L665.341 1515.95 Q668.165 1514.82 670.618 1514.24 Q673.072 1513.66 675.109 1513.66 Q680.479 1513.66 683.674 1516.35 Q686.868 1519.03 686.868 1523.52 Q686.868 1525.65 686.058 1527.57 Q685.271 1529.47 683.165 1532.07 Q682.586 1532.74 679.484 1535.95 Q676.382 1539.15 670.734 1544.91 Z" fill="#000000" fill-rule="evenodd" fill-opacity="1" /><path clip-path="url(#clip190)" d="M1148.92 1517.37 Q1145.31 1517.37 1143.48 1520.93 Q1141.67 1524.47 1141.67 1531.6 Q1141.67 1538.71 1143.48 1542.27 Q1145.31 1545.82 1148.92 1545.82 Q1152.55 1545.82 1154.36 1542.27 Q1156.19 1538.71 1156.19 1531.6 Q1156.19 1524.47 1154.36 1520.93 Q1152.55 1517.37 1148.92 1517.37 M1148.92 1513.66 Q1154.73 1513.66 1157.79 1518.27 Q1160.86 1522.85 1160.86 1531.6 Q1160.86 1540.33 1157.79 1544.94 Q1154.73 1549.52 1148.92 1549.52 Q1143.11 1549.52 1140.03 1544.94 Q1136.98 1540.33 1136.98 1531.6 Q1136.98 1522.85 1140.03 1518.27 Q1143.11 1513.66 1148.92 1513.66 Z" fill="#000000" fill-rule="evenodd" fill-opacity="1" /><path clip-path="url(#clip190)" d="M1635.5 1544.91 L1651.82 1544.91 L1651.82 1548.85 L1629.87 1548.85 L1629.87 1544.91 Q1632.53 1542.16 1637.12 1537.53 Q1641.72 1532.88 1642.9 1531.53 Q1645.15 1529.01 1646.03 1527.27 Q1646.93 1525.51 1646.93 1523.82 Q1646.93 1521.07 1644.99 1519.33 Q1643.07 1517.6 1639.96 1517.6 Q1637.76 1517.6 1635.31 1518.36 Q1632.88 1519.13 1630.1 1520.68 L1630.1 1515.95 Q1632.93 1514.82 1635.38 1514.24 Q1637.83 1513.66 1639.87 1513.66 Q1645.24 1513.66 1648.44 1516.35 Q1651.63 1519.03 1651.63 1523.52 Q1651.63 1525.65 1650.82 1527.57 Q1650.03 1529.47 1647.93 1532.07 Q1647.35 1532.74 1644.25 1535.95 Q1641.14 1539.15 1635.5 1544.91 Z" fill="#000000" fill-rule="evenodd" fill-opacity="1" /><path clip-path="url(#clip190)" d="M2135.78 1518.36 L2123.97 1536.81 L2135.78 1536.81 L2135.78 1518.36 M2134.55 1514.29 L2140.43 1514.29 L2140.43 1536.81 L2145.36 1536.81 L2145.36 1540.7 L2140.43 1540.7 L2140.43 1548.85 L2135.78 1548.85 L2135.78 1540.7 L2120.17 1540.7 L2120.17 1536.19 L2134.55 1514.29 Z" fill="#000000" fill-rule="evenodd" fill-opacity="1" /><polyline clip-path="url(#clip192)" style="stroke:#000000; stroke-linecap:round; stroke-linejoin:round; stroke-width:2; stroke-opacity:0.1; fill:none" points="
  141.853,1445.72 2352.76,1445.72 
  "/>
<polyline clip-path="url(#clip192)" style="stroke:#000000; stroke-linecap:round; stroke-linejoin:round; stroke-width:2; stroke-opacity:0.1; fill:none" points="
  141.853,1126.25 2352.76,1126.25 
  "/>
<polyline clip-path="url(#clip192)" style="stroke:#000000; stroke-linecap:round; stroke-linejoin:round; stroke-width:2; stroke-opacity:0.1; fill:none" points="
  141.853,806.779 2352.76,806.779 
  "/>
<polyline clip-path="url(#clip192)" style="stroke:#000000; stroke-linecap:round; stroke-linejoin:round; stroke-width:2; stroke-opacity:0.1; fill:none" points="
  141.853,487.311 2352.76,487.311 
  "/>
<polyline clip-path="url(#clip192)" style="stroke:#000000; stroke-linecap:round; stroke-linejoin:round; stroke-width:2; stroke-opacity:0.1; fill:none" points="
  141.853,167.843 2352.76,167.843 
  "/>
<polyline clip-path="url(#clip190)" style="stroke:#000000; stroke-linecap:round; stroke-linejoin:round; stroke-width:4; stroke-opacity:1; fill:none" points="
  141.853,1486.45 141.853,47.2441 
  "/>
<polyline clip-path="url(#clip190)" style="stroke:#000000; stroke-linecap:round; stroke-linejoin:round; stroke-width:4; stroke-opacity:1; fill:none" points="
  141.853,1445.72 160.751,1445.72 
  "/>
<polyline clip-path="url(#clip190)" style="stroke:#000000; stroke-linecap:round; stroke-linejoin:round; stroke-width:4; stroke-opacity:1; fill:none" points="
  141.853,1126.25 160.751,1126.25 
  "/>
<polyline clip-path="url(#clip190)" style="stroke:#000000; stroke-linecap:round; stroke-linejoin:round; stroke-width:4; stroke-opacity:1; fill:none" points="
  141.853,806.779 160.751,806.779 
  "/>
<polyline clip-path="url(#clip190)" style="stroke:#000000; stroke-linecap:round; stroke-linejoin:round; stroke-width:4; stroke-opacity:1; fill:none" points="
  141.853,487.311 160.751,487.311 
  "/>
<polyline clip-path="url(#clip190)" style="stroke:#000000; stroke-linecap:round; stroke-linejoin:round; stroke-width:4; stroke-opacity:1; fill:none" points="
  141.853,167.843 160.751,167.843 
  "/>
<path clip-path="url(#clip190)" d="M93.9086 1431.51 Q90.2975 1431.51 88.4688 1435.08 Q86.6632 1438.62 86.6632 1445.75 Q86.6632 1452.86 88.4688 1456.42 Q90.2975 1459.96 93.9086 1459.96 Q97.5428 1459.96 99.3483 1456.42 Q101.177 1452.86 101.177 1445.75 Q101.177 1438.62 99.3483 1435.08 Q97.5428 1431.51 93.9086 1431.51 M93.9086 1427.81 Q99.7187 1427.81 102.774 1432.42 Q105.853 1437 105.853 1445.75 Q105.853 1454.48 102.774 1459.08 Q99.7187 1463.67 93.9086 1463.67 Q88.0984 1463.67 85.0197 1459.08 Q81.9642 1454.48 81.9642 1445.75 Q81.9642 1437 85.0197 1432.42 Q88.0984 1427.81 93.9086 1427.81 Z" fill="#000000" fill-rule="evenodd" fill-opacity="1" /><path clip-path="url(#clip190)" d="M57.7745 1139.59 L74.0939 1139.59 L74.0939 1143.53 L52.1495 1143.53 L52.1495 1139.59 Q54.8115 1136.84 59.3949 1132.21 Q64.0013 1127.56 65.1819 1126.21 Q67.4272 1123.69 68.3068 1121.95 Q69.2096 1120.19 69.2096 1118.5 Q69.2096 1115.75 67.2652 1114.01 Q65.3439 1112.28 62.2421 1112.28 Q60.043 1112.28 57.5893 1113.04 Q55.1588 1113.81 52.381 1115.36 L52.381 1110.63 Q55.2051 1109.5 57.6588 1108.92 Q60.1124 1108.34 62.1495 1108.34 Q67.5198 1108.34 70.7142 1111.03 Q73.9087 1113.71 73.9087 1118.2 Q73.9087 1120.33 73.0985 1122.25 Q72.3115 1124.15 70.205 1126.75 Q69.6263 1127.42 66.5245 1130.63 Q63.4226 1133.83 57.7745 1139.59 Z" fill="#000000" fill-rule="evenodd" fill-opacity="1" /><path clip-path="url(#clip190)" d="M93.9086 1112.05 Q90.2975 1112.05 88.4688 1115.61 Q86.6632 1119.15 86.6632 1126.28 Q86.6632 1133.39 88.4688 1136.95 Q90.2975 1140.5 93.9086 1140.5 Q97.5428 1140.5 99.3483 1136.95 Q101.177 1133.39 101.177 1126.28 Q101.177 1119.15 99.3483 1115.61 Q97.5428 1112.05 93.9086 1112.05 M93.9086 1108.34 Q99.7187 1108.34 102.774 1112.95 Q105.853 1117.53 105.853 1126.28 Q105.853 1135.01 102.774 1139.62 Q99.7187 1144.2 93.9086 1144.2 Q88.0984 1144.2 85.0197 1139.62 Q81.9642 1135.01 81.9642 1126.28 Q81.9642 1117.53 85.0197 1112.95 Q88.0984 1108.34 93.9086 1108.34 Z" fill="#000000" fill-rule="evenodd" fill-opacity="1" /><path clip-path="url(#clip190)" d="M66.5939 793.574 L54.7884 812.023 L66.5939 812.023 L66.5939 793.574 M65.367 789.499 L71.2466 789.499 L71.2466 812.023 L76.1772 812.023 L76.1772 815.911 L71.2466 815.911 L71.2466 824.059 L66.5939 824.059 L66.5939 815.911 L50.9921 815.911 L50.9921 811.398 L65.367 789.499 Z" fill="#000000" fill-rule="evenodd" fill-opacity="1" /><path clip-path="url(#clip190)" d="M93.9086 792.578 Q90.2975 792.578 88.4688 796.143 Q86.6632 799.685 86.6632 806.814 Q86.6632 813.921 88.4688 817.485 Q90.2975 821.027 93.9086 821.027 Q97.5428 821.027 99.3483 817.485 Q101.177 813.921 101.177 806.814 Q101.177 799.685 99.3483 796.143 Q97.5428 792.578 93.9086 792.578 M93.9086 788.874 Q99.7187 788.874 102.774 793.481 Q105.853 798.064 105.853 806.814 Q105.853 815.541 102.774 820.147 Q99.7187 824.731 93.9086 824.731 Q88.0984 824.731 85.0197 820.147 Q81.9642 815.541 81.9642 806.814 Q81.9642 798.064 85.0197 793.481 Q88.0984 788.874 93.9086 788.874 Z" fill="#000000" fill-rule="evenodd" fill-opacity="1" /><path clip-path="url(#clip190)" d="M64.3254 485.448 Q61.1773 485.448 59.3254 487.601 Q57.4967 489.754 57.4967 493.503 Q57.4967 497.23 59.3254 499.406 Q61.1773 501.559 64.3254 501.559 Q67.4735 501.559 69.3022 499.406 Q71.1541 497.23 71.1541 493.503 Q71.1541 489.754 69.3022 487.601 Q67.4735 485.448 64.3254 485.448 M73.6077 470.795 L73.6077 475.055 Q71.8485 474.221 70.0429 473.781 Q68.2606 473.342 66.5013 473.342 Q61.8717 473.342 59.418 476.467 Q56.9875 479.592 56.6402 485.911 Q58.006 483.897 60.0662 482.832 Q62.1263 481.744 64.6032 481.744 Q69.8115 481.744 72.8207 484.916 Q75.8531 488.064 75.8531 493.503 Q75.8531 498.828 72.705 502.045 Q69.5568 505.263 64.3254 505.263 Q58.33 505.263 55.1588 500.679 Q51.9875 496.073 51.9875 487.346 Q51.9875 479.152 55.8764 474.291 Q59.7652 469.406 66.3161 469.406 Q68.0754 469.406 69.8578 469.754 Q71.6633 470.101 73.6077 470.795 Z" fill="#000000" fill-rule="evenodd" fill-opacity="1" /><path clip-path="url(#clip190)" d="M93.9086 473.11 Q90.2975 473.11 88.4688 476.675 Q86.6632 480.217 86.6632 487.346 Q86.6632 494.453 88.4688 498.017 Q90.2975 501.559 93.9086 501.559 Q97.5428 501.559 99.3483 498.017 Q101.177 494.453 101.177 487.346 Q101.177 480.217 99.3483 476.675 Q97.5428 473.11 93.9086 473.11 M93.9086 469.406 Q99.7187 469.406 102.774 474.013 Q105.853 478.596 105.853 487.346 Q105.853 496.073 102.774 500.679 Q99.7187 505.263 93.9086 505.263 Q88.0984 505.263 85.0197 500.679 Q81.9642 496.073 81.9642 487.346 Q81.9642 478.596 85.0197 474.013 Q88.0984 469.406 93.9086 469.406 Z" fill="#000000" fill-rule="evenodd" fill-opacity="1" /><path clip-path="url(#clip190)" d="M63.7467 168.711 Q60.4134 168.711 58.4921 170.494 Q56.5939 172.276 56.5939 175.401 Q56.5939 178.526 58.4921 180.309 Q60.4134 182.091 63.7467 182.091 Q67.08 182.091 69.0013 180.309 Q70.9226 178.503 70.9226 175.401 Q70.9226 172.276 69.0013 170.494 Q67.1032 168.711 63.7467 168.711 M59.0708 166.721 Q56.0615 165.98 54.3717 163.92 Q52.7051 161.86 52.7051 158.897 Q52.7051 154.753 55.6449 152.346 Q58.6078 149.938 63.7467 149.938 Q68.9087 149.938 71.8485 152.346 Q74.7883 154.753 74.7883 158.897 Q74.7883 161.86 73.0985 163.92 Q71.4318 165.98 68.4457 166.721 Q71.8253 167.508 73.7003 169.799 Q75.5985 172.091 75.5985 175.401 Q75.5985 180.424 72.5198 183.109 Q69.4642 185.795 63.7467 185.795 Q58.0291 185.795 54.9504 183.109 Q51.8949 180.424 51.8949 175.401 Q51.8949 172.091 53.793 169.799 Q55.6912 167.508 59.0708 166.721 M57.3578 159.336 Q57.3578 162.022 59.0245 163.526 Q60.7143 165.031 63.7467 165.031 Q66.7559 165.031 68.4457 163.526 Q70.1587 162.022 70.1587 159.336 Q70.1587 156.651 68.4457 155.147 Q66.7559 153.642 63.7467 153.642 Q60.7143 153.642 59.0245 155.147 Q57.3578 156.651 57.3578 159.336 Z" fill="#000000" fill-rule="evenodd" fill-opacity="1" /><path clip-path="url(#clip190)" d="M93.9086 153.642 Q90.2975 153.642 88.4688 157.207 Q86.6632 160.748 86.6632 167.878 Q86.6632 174.984 88.4688 178.549 Q90.2975 182.091 93.9086 182.091 Q97.5428 182.091 99.3483 178.549 Q101.177 174.984 101.177 167.878 Q101.177 160.748 99.3483 157.207 Q97.5428 153.642 93.9086 153.642 M93.9086 149.938 Q99.7187 149.938 102.774 154.545 Q105.853 159.128 105.853 167.878 Q105.853 176.605 102.774 181.211 Q99.7187 185.795 93.9086 185.795 Q88.0984 185.795 85.0197 181.211 Q81.9642 176.605 81.9642 167.878 Q81.9642 159.128 85.0197 154.545 Q88.0984 149.938 93.9086 149.938 Z" fill="#000000" fill-rule="evenodd" fill-opacity="1" /><path clip-path="url(#clip192)" d="
M263.457 1429.74 L263.457 1445.72 L312.649 1445.72 L312.649 1429.74 L263.457 1429.74 L263.457 1429.74  Z
  " fill="#009af9" fill-rule="evenodd" fill-opacity="1"/>
<polyline clip-path="url(#clip192)" style="stroke:#000000; stroke-linecap:round; stroke-linejoin:round; stroke-width:4; stroke-opacity:1; fill:none" points="
  263.457,1429.74 263.457,1445.72 312.649,1445.72 312.649,1429.74 263.457,1429.74 
  "/>
<path clip-path="url(#clip192)" d="
M312.649 1445.72 L312.649 1445.72 L361.841 1445.72 L361.841 1445.72 L312.649 1445.72 L312.649 1445.72  Z
  " fill="#009af9" fill-rule="evenodd" fill-opacity="1"/>
<polyline clip-path="url(#clip192)" style="stroke:#000000; stroke-linecap:round; stroke-linejoin:round; stroke-width:4; stroke-opacity:1; fill:none" points="
  312.649,1445.72 312.649,1445.72 361.841,1445.72 312.649,1445.72 
  "/>
<path clip-path="url(#clip192)" d="
M361.841 1445.72 L361.841 1445.72 L411.034 1445.72 L411.034 1445.72 L361.841 1445.72 L361.841 1445.72  Z
  " fill="#009af9" fill-rule="evenodd" fill-opacity="1"/>
<polyline clip-path="url(#clip192)" style="stroke:#000000; stroke-linecap:round; stroke-linejoin:round; stroke-width:4; stroke-opacity:1; fill:none" points="
  361.841,1445.72 361.841,1445.72 411.034,1445.72 361.841,1445.72 
  "/>
<path clip-path="url(#clip192)" d="
M411.034 1429.74 L411.034 1445.72 L460.226 1445.72 L460.226 1429.74 L411.034 1429.74 L411.034 1429.74  Z
  " fill="#009af9" fill-rule="evenodd" fill-opacity="1"/>
<polyline clip-path="url(#clip192)" style="stroke:#000000; stroke-linecap:round; stroke-linejoin:round; stroke-width:4; stroke-opacity:1; fill:none" points="
  411.034,1429.74 411.034,1445.72 460.226,1445.72 460.226,1429.74 411.034,1429.74 
  "/>
<path clip-path="url(#clip192)" d="
M460.226 1397.8 L460.226 1445.72 L509.419 1445.72 L509.419 1397.8 L460.226 1397.8 L460.226 1397.8  Z
  " fill="#009af9" fill-rule="evenodd" fill-opacity="1"/>
<polyline clip-path="url(#clip192)" style="stroke:#000000; stroke-linecap:round; stroke-linejoin:round; stroke-width:4; stroke-opacity:1; fill:none" points="
  460.226,1397.8 460.226,1445.72 509.419,1445.72 509.419,1397.8 460.226,1397.8 
  "/>
<path clip-path="url(#clip192)" d="
M509.419 1397.8 L509.419 1445.72 L558.611 1445.72 L558.611 1397.8 L509.419 1397.8 L509.419 1397.8  Z
  " fill="#009af9" fill-rule="evenodd" fill-opacity="1"/>
<polyline clip-path="url(#clip192)" style="stroke:#000000; stroke-linecap:round; stroke-linejoin:round; stroke-width:4; stroke-opacity:1; fill:none" points="
  509.419,1397.8 509.419,1445.72 558.611,1445.72 558.611,1397.8 509.419,1397.8 
  "/>
<path clip-path="url(#clip192)" d="
M558.611 1397.8 L558.611 1445.72 L607.803 1445.72 L607.803 1397.8 L558.611 1397.8 L558.611 1397.8  Z
  " fill="#009af9" fill-rule="evenodd" fill-opacity="1"/>
<polyline clip-path="url(#clip192)" style="stroke:#000000; stroke-linecap:round; stroke-linejoin:round; stroke-width:4; stroke-opacity:1; fill:none" points="
  558.611,1397.8 558.611,1445.72 607.803,1445.72 607.803,1397.8 558.611,1397.8 
  "/>
<path clip-path="url(#clip192)" d="
M607.803 1397.8 L607.803 1445.72 L656.996 1445.72 L656.996 1397.8 L607.803 1397.8 L607.803 1397.8  Z
  " fill="#009af9" fill-rule="evenodd" fill-opacity="1"/>
<polyline clip-path="url(#clip192)" style="stroke:#000000; stroke-linecap:round; stroke-linejoin:round; stroke-width:4; stroke-opacity:1; fill:none" points="
  607.803,1397.8 607.803,1445.72 656.996,1445.72 656.996,1397.8 607.803,1397.8 
  "/>
<path clip-path="url(#clip192)" d="
M656.996 1190.14 L656.996 1445.72 L706.188 1445.72 L706.188 1190.14 L656.996 1190.14 L656.996 1190.14  Z
  " fill="#009af9" fill-rule="evenodd" fill-opacity="1"/>
<polyline clip-path="url(#clip192)" style="stroke:#000000; stroke-linecap:round; stroke-linejoin:round; stroke-width:4; stroke-opacity:1; fill:none" points="
  656.996,1190.14 656.996,1445.72 706.188,1445.72 706.188,1190.14 656.996,1190.14 
  "/>
<path clip-path="url(#clip192)" d="
M706.188 1046.38 L706.188 1445.72 L755.38 1445.72 L755.38 1046.38 L706.188 1046.38 L706.188 1046.38  Z
  " fill="#009af9" fill-rule="evenodd" fill-opacity="1"/>
<polyline clip-path="url(#clip192)" style="stroke:#000000; stroke-linecap:round; stroke-linejoin:round; stroke-width:4; stroke-opacity:1; fill:none" points="
  706.188,1046.38 706.188,1445.72 755.38,1445.72 755.38,1046.38 706.188,1046.38 
  "/>
<path clip-path="url(#clip192)" d="
M755.38 1030.41 L755.38 1445.72 L804.573 1445.72 L804.573 1030.41 L755.38 1030.41 L755.38 1030.41  Z
  " fill="#009af9" fill-rule="evenodd" fill-opacity="1"/>
<polyline clip-path="url(#clip192)" style="stroke:#000000; stroke-linecap:round; stroke-linejoin:round; stroke-width:4; stroke-opacity:1; fill:none" points="
  755.38,1030.41 755.38,1445.72 804.573,1445.72 804.573,1030.41 755.38,1030.41 
  "/>
<path clip-path="url(#clip192)" d="
M804.573 918.593 L804.573 1445.72 L853.765 1445.72 L853.765 918.593 L804.573 918.593 L804.573 918.593  Z
  " fill="#009af9" fill-rule="evenodd" fill-opacity="1"/>
<polyline clip-path="url(#clip192)" style="stroke:#000000; stroke-linecap:round; stroke-linejoin:round; stroke-width:4; stroke-opacity:1; fill:none" points="
  804.573,918.593 804.573,1445.72 853.765,1445.72 853.765,918.593 804.573,918.593 
  "/>
<path clip-path="url(#clip192)" d="
M853.765 710.939 L853.765 1445.72 L902.958 1445.72 L902.958 710.939 L853.765 710.939 L853.765 710.939  Z
  " fill="#009af9" fill-rule="evenodd" fill-opacity="1"/>
<polyline clip-path="url(#clip192)" style="stroke:#000000; stroke-linecap:round; stroke-linejoin:round; stroke-width:4; stroke-opacity:1; fill:none" points="
  853.765,710.939 853.765,1445.72 902.958,1445.72 902.958,710.939 853.765,710.939 
  "/>
<path clip-path="url(#clip192)" d="
M902.958 343.551 L902.958 1445.72 L952.15 1445.72 L952.15 343.551 L902.958 343.551 L902.958 343.551  Z
  " fill="#009af9" fill-rule="evenodd" fill-opacity="1"/>
<polyline clip-path="url(#clip192)" style="stroke:#000000; stroke-linecap:round; stroke-linejoin:round; stroke-width:4; stroke-opacity:1; fill:none" points="
  902.958,343.551 902.958,1445.72 952.15,1445.72 952.15,343.551 902.958,343.551 
  "/>
<path clip-path="url(#clip192)" d="
M952.15 279.657 L952.15 1445.72 L1001.34 1445.72 L1001.34 279.657 L952.15 279.657 L952.15 279.657  Z
  " fill="#009af9" fill-rule="evenodd" fill-opacity="1"/>
<polyline clip-path="url(#clip192)" style="stroke:#000000; stroke-linecap:round; stroke-linejoin:round; stroke-width:4; stroke-opacity:1; fill:none" points="
  952.15,279.657 952.15,1445.72 1001.34,1445.72 1001.34,279.657 952.15,279.657 
  "/>
<path clip-path="url(#clip192)" d="
M1001.34 423.418 L1001.34 1445.72 L1050.53 1445.72 L1050.53 423.418 L1001.34 423.418 L1001.34 423.418  Z
  " fill="#009af9" fill-rule="evenodd" fill-opacity="1"/>
<polyline clip-path="url(#clip192)" style="stroke:#000000; stroke-linecap:round; stroke-linejoin:round; stroke-width:4; stroke-opacity:1; fill:none" points="
  1001.34,423.418 1001.34,1445.72 1050.53,1445.72 1050.53,423.418 1001.34,423.418 
  "/>
<path clip-path="url(#clip192)" d="
M1050.53 279.657 L1050.53 1445.72 L1099.73 1445.72 L1099.73 279.657 L1050.53 279.657 L1050.53 279.657  Z
  " fill="#009af9" fill-rule="evenodd" fill-opacity="1"/>
<polyline clip-path="url(#clip192)" style="stroke:#000000; stroke-linecap:round; stroke-linejoin:round; stroke-width:4; stroke-opacity:1; fill:none" points="
  1050.53,279.657 1050.53,1445.72 1099.73,1445.72 1099.73,279.657 1050.53,279.657 
  "/>
<path clip-path="url(#clip192)" d="
M1099.73 343.551 L1099.73 1445.72 L1148.92 1445.72 L1148.92 343.551 L1099.73 343.551 L1099.73 343.551  Z
  " fill="#009af9" fill-rule="evenodd" fill-opacity="1"/>
<polyline clip-path="url(#clip192)" style="stroke:#000000; stroke-linecap:round; stroke-linejoin:round; stroke-width:4; stroke-opacity:1; fill:none" points="
  1099.73,343.551 1099.73,1445.72 1148.92,1445.72 1148.92,343.551 1099.73,343.551 
  "/>
<path clip-path="url(#clip192)" d="
M1148.92 231.737 L1148.92 1445.72 L1198.11 1445.72 L1198.11 231.737 L1148.92 231.737 L1148.92 231.737  Z
  " fill="#009af9" fill-rule="evenodd" fill-opacity="1"/>
<polyline clip-path="url(#clip192)" style="stroke:#000000; stroke-linecap:round; stroke-linejoin:round; stroke-width:4; stroke-opacity:1; fill:none" points="
  1148.92,231.737 1148.92,1445.72 1198.11,1445.72 1198.11,231.737 1148.92,231.737 
  "/>
<path clip-path="url(#clip192)" d="
M1198.11 87.9763 L1198.11 1445.72 L1247.3 1445.72 L1247.3 87.9763 L1198.11 87.9763 L1198.11 87.9763  Z
  " fill="#009af9" fill-rule="evenodd" fill-opacity="1"/>
<polyline clip-path="url(#clip192)" style="stroke:#000000; stroke-linecap:round; stroke-linejoin:round; stroke-width:4; stroke-opacity:1; fill:none" points="
  1198.11,87.9763 1198.11,1445.72 1247.3,1445.72 1247.3,87.9763 1198.11,87.9763 
  "/>
<path clip-path="url(#clip192)" d="
M1247.3 311.604 L1247.3 1445.72 L1296.5 1445.72 L1296.5 311.604 L1247.3 311.604 L1247.3 311.604  Z
  " fill="#009af9" fill-rule="evenodd" fill-opacity="1"/>
<polyline clip-path="url(#clip192)" style="stroke:#000000; stroke-linecap:round; stroke-linejoin:round; stroke-width:4; stroke-opacity:1; fill:none" points="
  1247.3,311.604 1247.3,1445.72 1296.5,1445.72 1296.5,311.604 1247.3,311.604 
  "/>
<path clip-path="url(#clip192)" d="
M1296.5 391.471 L1296.5 1445.72 L1345.69 1445.72 L1345.69 391.471 L1296.5 391.471 L1296.5 391.471  Z
  " fill="#009af9" fill-rule="evenodd" fill-opacity="1"/>
<polyline clip-path="url(#clip192)" style="stroke:#000000; stroke-linecap:round; stroke-linejoin:round; stroke-width:4; stroke-opacity:1; fill:none" points="
  1296.5,391.471 1296.5,1445.72 1345.69,1445.72 1345.69,391.471 1296.5,391.471 
  "/>
<path clip-path="url(#clip192)" d="
M1345.69 535.232 L1345.69 1445.72 L1394.88 1445.72 L1394.88 535.232 L1345.69 535.232 L1345.69 535.232  Z
  " fill="#009af9" fill-rule="evenodd" fill-opacity="1"/>
<polyline clip-path="url(#clip192)" style="stroke:#000000; stroke-linecap:round; stroke-linejoin:round; stroke-width:4; stroke-opacity:1; fill:none" points="
  1345.69,535.232 1345.69,1445.72 1394.88,1445.72 1394.88,535.232 1345.69,535.232 
  "/>
<path clip-path="url(#clip192)" d="
M1394.88 806.779 L1394.88 1445.72 L1444.07 1445.72 L1444.07 806.779 L1394.88 806.779 L1394.88 806.779  Z
  " fill="#009af9" fill-rule="evenodd" fill-opacity="1"/>
<polyline clip-path="url(#clip192)" style="stroke:#000000; stroke-linecap:round; stroke-linejoin:round; stroke-width:4; stroke-opacity:1; fill:none" points="
  1394.88,806.779 1394.88,1445.72 1444.07,1445.72 1444.07,806.779 1394.88,806.779 
  "/>
<path clip-path="url(#clip192)" d="
M1444.07 870.673 L1444.07 1445.72 L1493.27 1445.72 L1493.27 870.673 L1444.07 870.673 L1444.07 870.673  Z
  " fill="#009af9" fill-rule="evenodd" fill-opacity="1"/>
<polyline clip-path="url(#clip192)" style="stroke:#000000; stroke-linecap:round; stroke-linejoin:round; stroke-width:4; stroke-opacity:1; fill:none" points="
  1444.07,870.673 1444.07,1445.72 1493.27,1445.72 1493.27,870.673 1444.07,870.673 
  "/>
<path clip-path="url(#clip192)" d="
M1493.27 1206.11 L1493.27 1445.72 L1542.46 1445.72 L1542.46 1206.11 L1493.27 1206.11 L1493.27 1206.11  Z
  " fill="#009af9" fill-rule="evenodd" fill-opacity="1"/>
<polyline clip-path="url(#clip192)" style="stroke:#000000; stroke-linecap:round; stroke-linejoin:round; stroke-width:4; stroke-opacity:1; fill:none" points="
  1493.27,1206.11 1493.27,1445.72 1542.46,1445.72 1542.46,1206.11 1493.27,1206.11 
  "/>
<path clip-path="url(#clip192)" d="
M1542.46 1222.09 L1542.46 1445.72 L1591.65 1445.72 L1591.65 1222.09 L1542.46 1222.09 L1542.46 1222.09  Z
  " fill="#009af9" fill-rule="evenodd" fill-opacity="1"/>
<polyline clip-path="url(#clip192)" style="stroke:#000000; stroke-linecap:round; stroke-linejoin:round; stroke-width:4; stroke-opacity:1; fill:none" points="
  1542.46,1222.09 1542.46,1445.72 1591.65,1445.72 1591.65,1222.09 1542.46,1222.09 
  "/>
<path clip-path="url(#clip192)" d="
M1591.65 1238.06 L1591.65 1445.72 L1640.84 1445.72 L1640.84 1238.06 L1591.65 1238.06 L1591.65 1238.06  Z
  " fill="#009af9" fill-rule="evenodd" fill-opacity="1"/>
<polyline clip-path="url(#clip192)" style="stroke:#000000; stroke-linecap:round; stroke-linejoin:round; stroke-width:4; stroke-opacity:1; fill:none" points="
  1591.65,1238.06 1591.65,1445.72 1640.84,1445.72 1640.84,1238.06 1591.65,1238.06 
  "/>
<path clip-path="url(#clip192)" d="
M1640.84 1317.93 L1640.84 1445.72 L1690.04 1445.72 L1690.04 1317.93 L1640.84 1317.93 L1640.84 1317.93  Z
  " fill="#009af9" fill-rule="evenodd" fill-opacity="1"/>
<polyline clip-path="url(#clip192)" style="stroke:#000000; stroke-linecap:round; stroke-linejoin:round; stroke-width:4; stroke-opacity:1; fill:none" points="
  1640.84,1317.93 1640.84,1445.72 1690.04,1445.72 1690.04,1317.93 1640.84,1317.93 
  "/>
<path clip-path="url(#clip192)" d="
M1690.04 1333.9 L1690.04 1445.72 L1739.23 1445.72 L1739.23 1333.9 L1690.04 1333.9 L1690.04 1333.9  Z
  " fill="#009af9" fill-rule="evenodd" fill-opacity="1"/>
<polyline clip-path="url(#clip192)" style="stroke:#000000; stroke-linecap:round; stroke-linejoin:round; stroke-width:4; stroke-opacity:1; fill:none" points="
  1690.04,1333.9 1690.04,1445.72 1739.23,1445.72 1739.23,1333.9 1690.04,1333.9 
  "/>
<path clip-path="url(#clip192)" d="
M1739.23 1413.77 L1739.23 1445.72 L1788.42 1445.72 L1788.42 1413.77 L1739.23 1413.77 L1739.23 1413.77  Z
  " fill="#009af9" fill-rule="evenodd" fill-opacity="1"/>
<polyline clip-path="url(#clip192)" style="stroke:#000000; stroke-linecap:round; stroke-linejoin:round; stroke-width:4; stroke-opacity:1; fill:none" points="
  1739.23,1413.77 1739.23,1445.72 1788.42,1445.72 1788.42,1413.77 1739.23,1413.77 
  "/>
<path clip-path="url(#clip192)" d="
M1788.42 1445.72 L1788.42 1445.72 L1837.61 1445.72 L1837.61 1445.72 L1788.42 1445.72 L1788.42 1445.72  Z
  " fill="#009af9" fill-rule="evenodd" fill-opacity="1"/>
<polyline clip-path="url(#clip192)" style="stroke:#000000; stroke-linecap:round; stroke-linejoin:round; stroke-width:4; stroke-opacity:1; fill:none" points="
  1788.42,1445.72 1788.42,1445.72 1837.61,1445.72 1788.42,1445.72 
  "/>
<path clip-path="url(#clip192)" d="
M1837.61 1429.74 L1837.61 1445.72 L1886.81 1445.72 L1886.81 1429.74 L1837.61 1429.74 L1837.61 1429.74  Z
  " fill="#009af9" fill-rule="evenodd" fill-opacity="1"/>
<polyline clip-path="url(#clip192)" style="stroke:#000000; stroke-linecap:round; stroke-linejoin:round; stroke-width:4; stroke-opacity:1; fill:none" points="
  1837.61,1429.74 1837.61,1445.72 1886.81,1445.72 1886.81,1429.74 1837.61,1429.74 
  "/>
<path clip-path="url(#clip192)" d="
M1886.81 1445.72 L1886.81 1445.72 L1936 1445.72 L1936 1445.72 L1886.81 1445.72 L1886.81 1445.72  Z
  " fill="#009af9" fill-rule="evenodd" fill-opacity="1"/>
<polyline clip-path="url(#clip192)" style="stroke:#000000; stroke-linecap:round; stroke-linejoin:round; stroke-width:4; stroke-opacity:1; fill:none" points="
  1886.81,1445.72 1886.81,1445.72 1936,1445.72 1886.81,1445.72 
  "/>
<path clip-path="url(#clip192)" d="
M1936 1445.72 L1936 1445.72 L1985.19 1445.72 L1985.19 1445.72 L1936 1445.72 L1936 1445.72  Z
  " fill="#009af9" fill-rule="evenodd" fill-opacity="1"/>
<polyline clip-path="url(#clip192)" style="stroke:#000000; stroke-linecap:round; stroke-linejoin:round; stroke-width:4; stroke-opacity:1; fill:none" points="
  1936,1445.72 1936,1445.72 1985.19,1445.72 1936,1445.72 
  "/>
<path clip-path="url(#clip192)" d="
M1985.19 1445.72 L1985.19 1445.72 L2034.38 1445.72 L2034.38 1445.72 L1985.19 1445.72 L1985.19 1445.72  Z
  " fill="#009af9" fill-rule="evenodd" fill-opacity="1"/>
<polyline clip-path="url(#clip192)" style="stroke:#000000; stroke-linecap:round; stroke-linejoin:round; stroke-width:4; stroke-opacity:1; fill:none" points="
  1985.19,1445.72 1985.19,1445.72 2034.38,1445.72 1985.19,1445.72 
  "/>
<path clip-path="url(#clip192)" d="
M2034.38 1445.72 L2034.38 1445.72 L2083.58 1445.72 L2083.58 1445.72 L2034.38 1445.72 L2034.38 1445.72  Z
  " fill="#009af9" fill-rule="evenodd" fill-opacity="1"/>
<polyline clip-path="url(#clip192)" style="stroke:#000000; stroke-linecap:round; stroke-linejoin:round; stroke-width:4; stroke-opacity:1; fill:none" points="
  2034.38,1445.72 2034.38,1445.72 2083.58,1445.72 2034.38,1445.72 
  "/>
<path clip-path="url(#clip192)" d="
M2083.58 1445.72 L2083.58 1445.72 L2132.77 1445.72 L2132.77 1445.72 L2083.58 1445.72 L2083.58 1445.72  Z
  " fill="#009af9" fill-rule="evenodd" fill-opacity="1"/>
<polyline clip-path="url(#clip192)" style="stroke:#000000; stroke-linecap:round; stroke-linejoin:round; stroke-width:4; stroke-opacity:1; fill:none" points="
  2083.58,1445.72 2083.58,1445.72 2132.77,1445.72 2083.58,1445.72 
  "/>
<path clip-path="url(#clip192)" d="
M2132.77 1445.72 L2132.77 1445.72 L2181.96 1445.72 L2181.96 1445.72 L2132.77 1445.72 L2132.77 1445.72  Z
  " fill="#009af9" fill-rule="evenodd" fill-opacity="1"/>
<polyline clip-path="url(#clip192)" style="stroke:#000000; stroke-linecap:round; stroke-linejoin:round; stroke-width:4; stroke-opacity:1; fill:none" points="
  2132.77,1445.72 2132.77,1445.72 2181.96,1445.72 2132.77,1445.72 
  "/>
<path clip-path="url(#clip192)" d="
M2181.96 1429.74 L2181.96 1445.72 L2231.15 1445.72 L2231.15 1429.74 L2181.96 1429.74 L2181.96 1429.74  Z
  " fill="#009af9" fill-rule="evenodd" fill-opacity="1"/>
<polyline clip-path="url(#clip192)" style="stroke:#000000; stroke-linecap:round; stroke-linejoin:round; stroke-width:4; stroke-opacity:1; fill:none" points="
  2181.96,1429.74 2181.96,1445.72 2231.15,1445.72 2231.15,1429.74 2181.96,1429.74 
  "/>
<circle clip-path="url(#clip192)" style="fill:#009af9; stroke:none; fill-opacity:0" cx="288.053" cy="1429.74" r="2"/>
<circle clip-path="url(#clip192)" style="fill:#009af9; stroke:none; fill-opacity:0" cx="337.245" cy="1445.72" r="2"/>
<circle clip-path="url(#clip192)" style="fill:#009af9; stroke:none; fill-opacity:0" cx="386.438" cy="1445.72" r="2"/>
<circle clip-path="url(#clip192)" style="fill:#009af9; stroke:none; fill-opacity:0" cx="435.63" cy="1429.74" r="2"/>
<circle clip-path="url(#clip192)" style="fill:#009af9; stroke:none; fill-opacity:0" cx="484.822" cy="1397.8" r="2"/>
<circle clip-path="url(#clip192)" style="fill:#009af9; stroke:none; fill-opacity:0" cx="534.015" cy="1397.8" r="2"/>
<circle clip-path="url(#clip192)" style="fill:#009af9; stroke:none; fill-opacity:0" cx="583.207" cy="1397.8" r="2"/>
<circle clip-path="url(#clip192)" style="fill:#009af9; stroke:none; fill-opacity:0" cx="632.399" cy="1397.8" r="2"/>
<circle clip-path="url(#clip192)" style="fill:#009af9; stroke:none; fill-opacity:0" cx="681.592" cy="1190.14" r="2"/>
<circle clip-path="url(#clip192)" style="fill:#009af9; stroke:none; fill-opacity:0" cx="730.784" cy="1046.38" r="2"/>
<circle clip-path="url(#clip192)" style="fill:#009af9; stroke:none; fill-opacity:0" cx="779.977" cy="1030.41" r="2"/>
<circle clip-path="url(#clip192)" style="fill:#009af9; stroke:none; fill-opacity:0" cx="829.169" cy="918.593" r="2"/>
<circle clip-path="url(#clip192)" style="fill:#009af9; stroke:none; fill-opacity:0" cx="878.361" cy="710.939" r="2"/>
<circle clip-path="url(#clip192)" style="fill:#009af9; stroke:none; fill-opacity:0" cx="927.554" cy="343.551" r="2"/>
<circle clip-path="url(#clip192)" style="fill:#009af9; stroke:none; fill-opacity:0" cx="976.746" cy="279.657" r="2"/>
<circle clip-path="url(#clip192)" style="fill:#009af9; stroke:none; fill-opacity:0" cx="1025.94" cy="423.418" r="2"/>
<circle clip-path="url(#clip192)" style="fill:#009af9; stroke:none; fill-opacity:0" cx="1075.13" cy="279.657" r="2"/>
<circle clip-path="url(#clip192)" style="fill:#009af9; stroke:none; fill-opacity:0" cx="1124.32" cy="343.551" r="2"/>
<circle clip-path="url(#clip192)" style="fill:#009af9; stroke:none; fill-opacity:0" cx="1173.52" cy="231.737" r="2"/>
<circle clip-path="url(#clip192)" style="fill:#009af9; stroke:none; fill-opacity:0" cx="1222.71" cy="87.9763" r="2"/>
<circle clip-path="url(#clip192)" style="fill:#009af9; stroke:none; fill-opacity:0" cx="1271.9" cy="311.604" r="2"/>
<circle clip-path="url(#clip192)" style="fill:#009af9; stroke:none; fill-opacity:0" cx="1321.09" cy="391.471" r="2"/>
<circle clip-path="url(#clip192)" style="fill:#009af9; stroke:none; fill-opacity:0" cx="1370.29" cy="535.232" r="2"/>
<circle clip-path="url(#clip192)" style="fill:#009af9; stroke:none; fill-opacity:0" cx="1419.48" cy="806.779" r="2"/>
<circle clip-path="url(#clip192)" style="fill:#009af9; stroke:none; fill-opacity:0" cx="1468.67" cy="870.673" r="2"/>
<circle clip-path="url(#clip192)" style="fill:#009af9; stroke:none; fill-opacity:0" cx="1517.86" cy="1206.11" r="2"/>
<circle clip-path="url(#clip192)" style="fill:#009af9; stroke:none; fill-opacity:0" cx="1567.05" cy="1222.09" r="2"/>
<circle clip-path="url(#clip192)" style="fill:#009af9; stroke:none; fill-opacity:0" cx="1616.25" cy="1238.06" r="2"/>
<circle clip-path="url(#clip192)" style="fill:#009af9; stroke:none; fill-opacity:0" cx="1665.44" cy="1317.93" r="2"/>
<circle clip-path="url(#clip192)" style="fill:#009af9; stroke:none; fill-opacity:0" cx="1714.63" cy="1333.9" r="2"/>
<circle clip-path="url(#clip192)" style="fill:#009af9; stroke:none; fill-opacity:0" cx="1763.82" cy="1413.77" r="2"/>
<circle clip-path="url(#clip192)" style="fill:#009af9; stroke:none; fill-opacity:0" cx="1813.02" cy="1445.72" r="2"/>
<circle clip-path="url(#clip192)" style="fill:#009af9; stroke:none; fill-opacity:0" cx="1862.21" cy="1429.74" r="2"/>
<circle clip-path="url(#clip192)" style="fill:#009af9; stroke:none; fill-opacity:0" cx="1911.4" cy="1445.72" r="2"/>
<circle clip-path="url(#clip192)" style="fill:#009af9; stroke:none; fill-opacity:0" cx="1960.59" cy="1445.72" r="2"/>
<circle clip-path="url(#clip192)" style="fill:#009af9; stroke:none; fill-opacity:0" cx="2009.79" cy="1445.72" r="2"/>
<circle clip-path="url(#clip192)" style="fill:#009af9; stroke:none; fill-opacity:0" cx="2058.98" cy="1445.72" r="2"/>
<circle clip-path="url(#clip192)" style="fill:#009af9; stroke:none; fill-opacity:0" cx="2108.17" cy="1445.72" r="2"/>
<circle clip-path="url(#clip192)" style="fill:#009af9; stroke:none; fill-opacity:0" cx="2157.36" cy="1445.72" r="2"/>
<circle clip-path="url(#clip192)" style="fill:#009af9; stroke:none; fill-opacity:0" cx="2206.56" cy="1429.74" r="2"/>
<path clip-path="url(#clip190)" d="
M2005.54 198.898 L2279.06 198.898 L2279.06 95.2176 L2005.54 95.2176  Z
  " fill="#ffffff" fill-rule="evenodd" fill-opacity="1"/>
<polyline clip-path="url(#clip190)" style="stroke:#000000; stroke-linecap:round; stroke-linejoin:round; stroke-width:4; stroke-opacity:1; fill:none" points="
  2005.54,198.898 2279.06,198.898 2279.06,95.2176 2005.54,95.2176 2005.54,198.898 
  "/>
<path clip-path="url(#clip190)" d="
M2030.1 167.794 L2177.5 167.794 L2177.5 126.322 L2030.1 126.322 L2030.1 167.794  Z
  " fill="#009af9" fill-rule="evenodd" fill-opacity="1"/>
<polyline clip-path="url(#clip190)" style="stroke:#000000; stroke-linecap:round; stroke-linejoin:round; stroke-width:4; stroke-opacity:1; fill:none" points="
  2030.1,167.794 2177.5,167.794 2177.5,126.322 2030.1,126.322 2030.1,167.794 
  "/>
<path clip-path="url(#clip190)" d="M2215.91 166.745 Q2214.1 171.375 2212.39 172.787 Q2210.67 174.199 2207.8 174.199 L2204.4 174.199 L2204.4 170.634 L2206.9 170.634 Q2208.66 170.634 2209.63 169.8 Q2210.6 168.967 2211.79 165.865 L2212.55 163.921 L2202.06 138.412 L2206.58 138.412 L2214.68 158.689 L2222.78 138.412 L2227.29 138.412 L2215.91 166.745 Z" fill="#000000" fill-rule="evenodd" fill-opacity="1" /><path clip-path="url(#clip190)" d="M2234.59 160.402 L2242.23 160.402 L2242.23 134.037 L2233.91 135.703 L2233.91 131.444 L2242.18 129.778 L2246.85 129.778 L2246.85 160.402 L2254.49 160.402 L2254.49 164.338 L2234.59 164.338 L2234.59 160.402 Z" fill="#000000" fill-rule="evenodd" fill-opacity="1" /></svg>
