<?xml version="1.0" encoding="utf-8"?>
<svg xmlns="http://www.w3.org/2000/svg" xmlns:xlink="http://www.w3.org/1999/xlink" width="600" height="400" viewBox="0 0 2400 1600">
<defs>
  <clipPath id="clip860">
    <rect x="0" y="0" width="2400" height="1600"/>
  </clipPath>
</defs>
<path clip-path="url(#clip860)" d="
M0 1600 L2400 1600 L2400 0 L0 0  Z
  " fill="#ffffff" fill-rule="evenodd" fill-opacity="1"/>
<defs>
  <clipPath id="clip861">
    <rect x="480" y="0" width="1681" height="1600"/>
  </clipPath>
</defs>
<path clip-path="url(#clip860)" d="
M141.853 1486.45 L2352.76 1486.45 L2352.76 47.2441 L141.853 47.2441  Z
  " fill="#ffffff" fill-rule="evenodd" fill-opacity="1"/>
<defs>
  <clipPath id="clip862">
    <rect x="141" y="47" width="2212" height="1440"/>
  </clipPath>
</defs>
<polyline clip-path="url(#clip862)" style="stroke:#000000; stroke-linecap:round; stroke-linejoin:round; stroke-width:2; stroke-opacity:0.1; fill:none" points="
  208.798,1486.45 208.798,47.2441 
  "/>
<polyline clip-path="url(#clip862)" style="stroke:#000000; stroke-linecap:round; stroke-linejoin:round; stroke-width:2; stroke-opacity:0.1; fill:none" points="
  755.38,1486.45 755.38,47.2441 
  "/>
<polyline clip-path="url(#clip862)" style="stroke:#000000; stroke-linecap:round; stroke-linejoin:round; stroke-width:2; stroke-opacity:0.1; fill:none" points="
  1301.96,1486.45 1301.96,47.2441 
  "/>
<polyline clip-path="url(#clip862)" style="stroke:#000000; stroke-linecap:round; stroke-linejoin:round; stroke-width:2; stroke-opacity:0.1; fill:none" points="
  1848.54,1486.45 1848.54,47.2441 
  "/>
<polyline clip-path="url(#clip860)" style="stroke:#000000; stroke-linecap:round; stroke-linejoin:round; stroke-width:4; stroke-opacity:1; fill:none" points="
  141.853,1486.45 2352.76,1486.45 
  "/>
<polyline clip-path="url(#clip860)" style="stroke:#000000; stroke-linecap:round; stroke-linejoin:round; stroke-width:4; stroke-opacity:1; fill:none" points="
  208.798,1486.45 208.798,1467.55 
  "/>
<polyline clip-path="url(#clip860)" style="stroke:#000000; stroke-linecap:round; stroke-linejoin:round; stroke-width:4; stroke-opacity:1; fill:none" points="
  755.38,1486.45 755.38,1467.55 
  "/>
<polyline clip-path="url(#clip860)" style="stroke:#000000; stroke-linecap:round; stroke-linejoin:round; stroke-width:4; stroke-opacity:1; fill:none" points="
  1301.96,1486.45 1301.96,1467.55 
  "/>
<polyline clip-path="url(#clip860)" style="stroke:#000000; stroke-linecap:round; stroke-linejoin:round; stroke-width:4; stroke-opacity:1; fill:none" points="
  1848.54,1486.45 1848.54,1467.55 
  "/>
<path clip-path="url(#clip860)" d="M177.699 1532.02 L207.375 1532.02 L207.375 1535.95 L177.699 1535.95 L177.699 1532.02 Z" fill="#000000" fill-rule="evenodd" fill-opacity="1" /><path clip-path="url(#clip860)" d="M230.314 1518.36 L218.509 1536.81 L230.314 1536.81 L230.314 1518.36 M229.088 1514.29 L234.967 1514.29 L234.967 1536.81 L239.898 1536.81 L239.898 1540.7 L234.967 1540.7 L234.967 1548.85 L230.314 1548.85 L230.314 1540.7 L214.713 1540.7 L214.713 1536.19 L229.088 1514.29 Z" fill="#000000" fill-rule="evenodd" fill-opacity="1" /><path clip-path="url(#clip860)" d="M725.323 1532.02 L754.999 1532.02 L754.999 1535.95 L725.323 1535.95 L725.323 1532.02 Z" fill="#000000" fill-rule="evenodd" fill-opacity="1" /><path clip-path="url(#clip860)" d="M769.119 1544.91 L785.438 1544.91 L785.438 1548.85 L763.494 1548.85 L763.494 1544.91 Q766.156 1542.16 770.739 1537.53 Q775.346 1532.88 776.526 1531.53 Q778.772 1529.01 779.651 1527.27 Q780.554 1525.51 780.554 1523.82 Q780.554 1521.07 778.61 1519.33 Q776.688 1517.6 773.586 1517.6 Q771.387 1517.6 768.934 1518.36 Q766.503 1519.13 763.725 1520.68 L763.725 1515.95 Q766.549 1514.82 769.003 1514.24 Q771.457 1513.66 773.494 1513.66 Q778.864 1513.66 782.059 1516.35 Q785.253 1519.03 785.253 1523.52 Q785.253 1525.65 784.443 1527.57 Q783.656 1529.47 781.549 1532.07 Q780.971 1532.74 777.869 1535.95 Q774.767 1539.15 769.119 1544.91 Z" fill="#000000" fill-rule="evenodd" fill-opacity="1" /><path clip-path="url(#clip860)" d="M1301.96 1517.37 Q1298.35 1517.37 1296.52 1520.93 Q1294.72 1524.47 1294.72 1531.6 Q1294.72 1538.71 1296.52 1542.27 Q1298.35 1545.82 1301.96 1545.82 Q1305.6 1545.82 1307.4 1542.27 Q1309.23 1538.71 1309.23 1531.6 Q1309.23 1524.47 1307.4 1520.93 Q1305.6 1517.37 1301.96 1517.37 M1301.96 1513.66 Q1307.77 1513.66 1310.83 1518.27 Q1313.91 1522.85 1313.91 1531.6 Q1313.91 1540.33 1310.83 1544.94 Q1307.77 1549.52 1301.96 1549.52 Q1296.15 1549.52 1293.07 1544.94 Q1290.02 1540.33 1290.02 1531.6 Q1290.02 1522.85 1293.07 1518.27 Q1296.15 1513.66 1301.96 1513.66 Z" fill="#000000" fill-rule="evenodd" fill-opacity="1" /><path clip-path="url(#clip860)" d="M1843.2 1544.91 L1859.52 1544.91 L1859.52 1548.85 L1837.57 1548.85 L1837.57 1544.91 Q1840.23 1542.16 1844.82 1537.53 Q1849.42 1532.88 1850.6 1531.53 Q1852.85 1529.01 1853.73 1527.27 Q1854.63 1525.51 1854.63 1523.82 Q1854.63 1521.07 1852.69 1519.33 Q1850.77 1517.6 1847.67 1517.6 Q1845.47 1517.6 1843.01 1518.36 Q1840.58 1519.13 1837.8 1520.68 L1837.8 1515.95 Q1840.63 1514.82 1843.08 1514.24 Q1845.54 1513.66 1847.57 1513.66 Q1852.94 1513.66 1856.14 1516.35 Q1859.33 1519.03 1859.33 1523.52 Q1859.33 1525.65 1858.52 1527.57 Q1857.73 1529.47 1855.63 1532.07 Q1855.05 1532.74 1851.95 1535.95 Q1848.85 1539.15 1843.2 1544.91 Z" fill="#000000" fill-rule="evenodd" fill-opacity="1" /><polyline clip-path="url(#clip862)" style="stroke:#000000; stroke-linecap:round; stroke-linejoin:round; stroke-width:2; stroke-opacity:0.1; fill:none" points="
  141.853,1445.72 2352.76,1445.72 
  "/>
<polyline clip-path="url(#clip862)" style="stroke:#000000; stroke-linecap:round; stroke-linejoin:round; stroke-width:2; stroke-opacity:0.1; fill:none" points="
  141.853,1159.88 2352.76,1159.88 
  "/>
<polyline clip-path="url(#clip862)" style="stroke:#000000; stroke-linecap:round; stroke-linejoin:round; stroke-width:2; stroke-opacity:0.1; fill:none" points="
  141.853,874.036 2352.76,874.036 
  "/>
<polyline clip-path="url(#clip862)" style="stroke:#000000; stroke-linecap:round; stroke-linejoin:round; stroke-width:2; stroke-opacity:0.1; fill:none" points="
  141.853,588.196 2352.76,588.196 
  "/>
<polyline clip-path="url(#clip862)" style="stroke:#000000; stroke-linecap:round; stroke-linejoin:round; stroke-width:2; stroke-opacity:0.1; fill:none" points="
  141.853,302.356 2352.76,302.356 
  "/>
<polyline clip-path="url(#clip860)" style="stroke:#000000; stroke-linecap:round; stroke-linejoin:round; stroke-width:4; stroke-opacity:1; fill:none" points="
  141.853,1486.45 141.853,47.2441 
  "/>
<polyline clip-path="url(#clip860)" style="stroke:#000000; stroke-linecap:round; stroke-linejoin:round; stroke-width:4; stroke-opacity:1; fill:none" points="
  141.853,1445.72 160.751,1445.72 
  "/>
<polyline clip-path="url(#clip860)" style="stroke:#000000; stroke-linecap:round; stroke-linejoin:round; stroke-width:4; stroke-opacity:1; fill:none" points="
  141.853,1159.88 160.751,1159.88 
  "/>
<polyline clip-path="url(#clip860)" style="stroke:#000000; stroke-linecap:round; stroke-linejoin:round; stroke-width:4; stroke-opacity:1; fill:none" points="
  141.853,874.036 160.751,874.036 
  "/>
<polyline clip-path="url(#clip860)" style="stroke:#000000; stroke-linecap:round; stroke-linejoin:round; stroke-width:4; stroke-opacity:1; fill:none" points="
  141.853,588.196 160.751,588.196 
  "/>
<polyline clip-path="url(#clip860)" style="stroke:#000000; stroke-linecap:round; stroke-linejoin:round; stroke-width:4; stroke-opacity:1; fill:none" points="
  141.853,302.356 160.751,302.356 
  "/>
<path clip-path="url(#clip860)" d="M93.9086 1431.51 Q90.2975 1431.51 88.4688 1435.08 Q86.6632 1438.62 86.6632 1445.75 Q86.6632 1452.86 88.4688 1456.42 Q90.2975 1459.96 93.9086 1459.96 Q97.5428 1459.96 99.3483 1456.42 Q101.177 1452.86 101.177 1445.75 Q101.177 1438.62 99.3483 1435.08 Q97.5428 1431.51 93.9086 1431.51 M93.9086 1427.81 Q99.7187 1427.81 102.774 1432.42 Q105.853 1437 105.853 1445.75 Q105.853 1454.48 102.774 1459.08 Q99.7187 1463.67 93.9086 1463.67 Q88.0984 1463.67 85.0197 1459.08 Q81.9642 1454.48 81.9642 1445.75 Q81.9642 1437 85.0197 1432.42 Q88.0984 1427.81 93.9086 1427.81 Z" fill="#000000" fill-rule="evenodd" fill-opacity="1" /><path clip-path="url(#clip860)" d="M57.7745 1173.22 L74.0939 1173.22 L74.0939 1177.16 L52.1495 1177.16 L52.1495 1173.22 Q54.8115 1170.47 59.3949 1165.84 Q64.0013 1161.18 65.1819 1159.84 Q67.4272 1157.32 68.3068 1155.58 Q69.2096 1153.82 69.2096 1152.13 Q69.2096 1149.38 67.2652 1147.64 Q65.3439 1145.91 62.2421 1145.91 Q60.043 1145.91 57.5893 1146.67 Q55.1588 1147.43 52.381 1148.98 L52.381 1144.26 Q55.2051 1143.13 57.6588 1142.55 Q60.1124 1141.97 62.1495 1141.97 Q67.5198 1141.97 70.7142 1144.66 Q73.9087 1147.34 73.9087 1151.83 Q73.9087 1153.96 73.0985 1155.88 Q72.3115 1157.78 70.205 1160.37 Q69.6263 1161.04 66.5245 1164.26 Q63.4226 1167.46 57.7745 1173.22 Z" fill="#000000" fill-rule="evenodd" fill-opacity="1" /><path clip-path="url(#clip860)" d="M93.9086 1145.67 Q90.2975 1145.67 88.4688 1149.24 Q86.6632 1152.78 86.6632 1159.91 Q86.6632 1167.02 88.4688 1170.58 Q90.2975 1174.12 93.9086 1174.12 Q97.5428 1174.12 99.3483 1170.58 Q101.177 1167.02 101.177 1159.91 Q101.177 1152.78 99.3483 1149.24 Q97.5428 1145.67 93.9086 1145.67 M93.9086 1141.97 Q99.7187 1141.97 102.774 1146.58 Q105.853 1151.16 105.853 1159.91 Q105.853 1168.64 102.774 1173.24 Q99.7187 1177.83 93.9086 1177.83 Q88.0984 1177.83 85.0197 1173.24 Q81.9642 1168.64 81.9642 1159.91 Q81.9642 1151.16 85.0197 1146.58 Q88.0984 1141.97 93.9086 1141.97 Z" fill="#000000" fill-rule="evenodd" fill-opacity="1" /><path clip-path="url(#clip860)" d="M66.5939 860.83 L54.7884 879.279 L66.5939 879.279 L66.5939 860.83 M65.367 856.756 L71.2466 856.756 L71.2466 879.279 L76.1772 879.279 L76.1772 883.168 L71.2466 883.168 L71.2466 891.316 L66.5939 891.316 L66.5939 883.168 L50.9921 883.168 L50.9921 878.654 L65.367 856.756 Z" fill="#000000" fill-rule="evenodd" fill-opacity="1" /><path clip-path="url(#clip860)" d="M93.9086 859.835 Q90.2975 859.835 88.4688 863.399 Q86.6632 866.941 86.6632 874.071 Q86.6632 881.177 88.4688 884.742 Q90.2975 888.284 93.9086 888.284 Q97.5428 888.284 99.3483 884.742 Q101.177 881.177 101.177 874.071 Q101.177 866.941 99.3483 863.399 Q97.5428 859.835 93.9086 859.835 M93.9086 856.131 Q99.7187 856.131 102.774 860.737 Q105.853 865.321 105.853 874.071 Q105.853 882.797 102.774 887.404 Q99.7187 891.987 93.9086 891.987 Q88.0984 891.987 85.0197 887.404 Q81.9642 882.797 81.9642 874.071 Q81.9642 865.321 85.0197 860.737 Q88.0984 856.131 93.9086 856.131 Z" fill="#000000" fill-rule="evenodd" fill-opacity="1" /><path clip-path="url(#clip860)" d="M64.3254 586.333 Q61.1773 586.333 59.3254 588.485 Q57.4967 590.638 57.4967 594.388 Q57.4967 598.115 59.3254 600.291 Q61.1773 602.444 64.3254 602.444 Q67.4735 602.444 69.3022 600.291 Q71.1541 598.115 71.1541 594.388 Q71.1541 590.638 69.3022 588.485 Q67.4735 586.333 64.3254 586.333 M73.6077 571.68 L73.6077 575.939 Q71.8485 575.106 70.0429 574.666 Q68.2606 574.226 66.5013 574.226 Q61.8717 574.226 59.418 577.351 Q56.9875 580.476 56.6402 586.796 Q58.006 584.782 60.0662 583.717 Q62.1263 582.629 64.6032 582.629 Q69.8115 582.629 72.8207 585.8 Q75.8531 588.948 75.8531 594.388 Q75.8531 599.712 72.705 602.93 Q69.5568 606.147 64.3254 606.147 Q58.33 606.147 55.1588 601.564 Q51.9875 596.958 51.9875 588.231 Q51.9875 580.036 55.8764 575.175 Q59.7652 570.291 66.3161 570.291 Q68.0754 570.291 69.8578 570.638 Q71.6633 570.986 73.6077 571.68 Z" fill="#000000" fill-rule="evenodd" fill-opacity="1" /><path clip-path="url(#clip860)" d="M93.9086 573.995 Q90.2975 573.995 88.4688 577.56 Q86.6632 581.101 86.6632 588.231 Q86.6632 595.337 88.4688 598.902 Q90.2975 602.444 93.9086 602.444 Q97.5428 602.444 99.3483 598.902 Q101.177 595.337 101.177 588.231 Q101.177 581.101 99.3483 577.56 Q97.5428 573.995 93.9086 573.995 M93.9086 570.291 Q99.7187 570.291 102.774 574.898 Q105.853 579.481 105.853 588.231 Q105.853 596.958 102.774 601.564 Q99.7187 606.147 93.9086 606.147 Q88.0984 606.147 85.0197 601.564 Q81.9642 596.958 81.9642 588.231 Q81.9642 579.481 85.0197 574.898 Q88.0984 570.291 93.9086 570.291 Z" fill="#000000" fill-rule="evenodd" fill-opacity="1" /><path clip-path="url(#clip860)" d="M63.7467 303.224 Q60.4134 303.224 58.4921 305.007 Q56.5939 306.789 56.5939 309.914 Q56.5939 313.039 58.4921 314.821 Q60.4134 316.604 63.7467 316.604 Q67.08 316.604 69.0013 314.821 Q70.9226 313.016 70.9226 309.914 Q70.9226 306.789 69.0013 305.007 Q67.1032 303.224 63.7467 303.224 M59.0708 301.234 Q56.0615 300.493 54.3717 298.433 Q52.7051 296.372 52.7051 293.409 Q52.7051 289.266 55.6449 286.859 Q58.6078 284.451 63.7467 284.451 Q68.9087 284.451 71.8485 286.859 Q74.7883 289.266 74.7883 293.409 Q74.7883 296.372 73.0985 298.433 Q71.4318 300.493 68.4457 301.234 Q71.8253 302.021 73.7003 304.312 Q75.5985 306.604 75.5985 309.914 Q75.5985 314.937 72.5198 317.622 Q69.4642 320.307 63.7467 320.307 Q58.0291 320.307 54.9504 317.622 Q51.8949 314.937 51.8949 309.914 Q51.8949 306.604 53.793 304.312 Q55.6912 302.021 59.0708 301.234 M57.3578 293.849 Q57.3578 296.534 59.0245 298.039 Q60.7143 299.544 63.7467 299.544 Q66.7559 299.544 68.4457 298.039 Q70.1587 296.534 70.1587 293.849 Q70.1587 291.164 68.4457 289.659 Q66.7559 288.155 63.7467 288.155 Q60.7143 288.155 59.0245 289.659 Q57.3578 291.164 57.3578 293.849 Z" fill="#000000" fill-rule="evenodd" fill-opacity="1" /><path clip-path="url(#clip860)" d="M93.9086 288.155 Q90.2975 288.155 88.4688 291.72 Q86.6632 295.261 86.6632 302.391 Q86.6632 309.497 88.4688 313.062 Q90.2975 316.604 93.9086 316.604 Q97.5428 316.604 99.3483 313.062 Q101.177 309.497 101.177 302.391 Q101.177 295.261 99.3483 291.72 Q97.5428 288.155 93.9086 288.155 M93.9086 284.451 Q99.7187 284.451 102.774 289.058 Q105.853 293.641 105.853 302.391 Q105.853 311.118 102.774 315.724 Q99.7187 320.307 93.9086 320.307 Q88.0984 320.307 85.0197 315.724 Q81.9642 311.118 81.9642 302.391 Q81.9642 293.641 85.0197 289.058 Q88.0984 284.451 93.9086 284.451 Z" fill="#000000" fill-rule="evenodd" fill-opacity="1" /><path clip-path="url(#clip862)" d="
M263.457 1431.42 L263.457 1445.72 L318.115 1445.72 L318.115 1431.42 L263.457 1431.42 L263.457 1431.42  Z
  " fill="#009af9" fill-rule="evenodd" fill-opacity="1"/>
<polyline clip-path="url(#clip862)" style="stroke:#000000; stroke-linecap:round; stroke-linejoin:round; stroke-width:4; stroke-opacity:1; fill:none" points="
  263.457,1431.42 263.457,1445.72 318.115,1445.72 318.115,1431.42 263.457,1431.42 
  "/>
<path clip-path="url(#clip862)" d="
M318.115 1445.72 L318.115 1445.72 L372.773 1445.72 L372.773 1445.72 L318.115 1445.72 L318.115 1445.72  Z
  " fill="#009af9" fill-rule="evenodd" fill-opacity="1"/>
<polyline clip-path="url(#clip862)" style="stroke:#000000; stroke-linecap:round; stroke-linejoin:round; stroke-width:4; stroke-opacity:1; fill:none" points="
  318.115,1445.72 318.115,1445.72 372.773,1445.72 318.115,1445.72 
  "/>
<path clip-path="url(#clip862)" d="
M372.773 1431.42 L372.773 1445.72 L427.431 1445.72 L427.431 1431.42 L372.773 1431.42 L372.773 1431.42  Z
  " fill="#009af9" fill-rule="evenodd" fill-opacity="1"/>
<polyline clip-path="url(#clip862)" style="stroke:#000000; stroke-linecap:round; stroke-linejoin:round; stroke-width:4; stroke-opacity:1; fill:none" points="
  372.773,1431.42 372.773,1445.72 427.431,1445.72 427.431,1431.42 372.773,1431.42 
  "/>
<path clip-path="url(#clip862)" d="
M427.431 1445.72 L427.431 1445.72 L482.089 1445.72 L482.089 1445.72 L427.431 1445.72 L427.431 1445.72  Z
  " fill="#009af9" fill-rule="evenodd" fill-opacity="1"/>
<polyline clip-path="url(#clip862)" style="stroke:#000000; stroke-linecap:round; stroke-linejoin:round; stroke-width:4; stroke-opacity:1; fill:none" points="
  427.431,1445.72 427.431,1445.72 482.089,1445.72 427.431,1445.72 
  "/>
<path clip-path="url(#clip862)" d="
M482.089 1445.72 L482.089 1445.72 L536.748 1445.72 L536.748 1445.72 L482.089 1445.72 L482.089 1445.72  Z
  " fill="#009af9" fill-rule="evenodd" fill-opacity="1"/>
<polyline clip-path="url(#clip862)" style="stroke:#000000; stroke-linecap:round; stroke-linejoin:round; stroke-width:4; stroke-opacity:1; fill:none" points="
  482.089,1445.72 482.089,1445.72 536.748,1445.72 482.089,1445.72 
  "/>
<path clip-path="url(#clip862)" d="
M536.748 1417.13 L536.748 1445.72 L591.406 1445.72 L591.406 1417.13 L536.748 1417.13 L536.748 1417.13  Z
  " fill="#009af9" fill-rule="evenodd" fill-opacity="1"/>
<polyline clip-path="url(#clip862)" style="stroke:#000000; stroke-linecap:round; stroke-linejoin:round; stroke-width:4; stroke-opacity:1; fill:none" points="
  536.748,1417.13 536.748,1445.72 591.406,1445.72 591.406,1417.13 536.748,1417.13 
  "/>
<path clip-path="url(#clip862)" d="
M591.406 1331.38 L591.406 1445.72 L646.064 1445.72 L646.064 1331.38 L591.406 1331.38 L591.406 1331.38  Z
  " fill="#009af9" fill-rule="evenodd" fill-opacity="1"/>
<polyline clip-path="url(#clip862)" style="stroke:#000000; stroke-linecap:round; stroke-linejoin:round; stroke-width:4; stroke-opacity:1; fill:none" points="
  591.406,1331.38 591.406,1445.72 646.064,1445.72 646.064,1331.38 591.406,1331.38 
  "/>
<path clip-path="url(#clip862)" d="
M646.064 1359.96 L646.064 1445.72 L700.722 1445.72 L700.722 1359.96 L646.064 1359.96 L646.064 1359.96  Z
  " fill="#009af9" fill-rule="evenodd" fill-opacity="1"/>
<polyline clip-path="url(#clip862)" style="stroke:#000000; stroke-linecap:round; stroke-linejoin:round; stroke-width:4; stroke-opacity:1; fill:none" points="
  646.064,1359.96 646.064,1445.72 700.722,1445.72 700.722,1359.96 646.064,1359.96 
  "/>
<path clip-path="url(#clip862)" d="
M700.722 1359.96 L700.722 1445.72 L755.38 1445.72 L755.38 1359.96 L700.722 1359.96 L700.722 1359.96  Z
  " fill="#009af9" fill-rule="evenodd" fill-opacity="1"/>
<polyline clip-path="url(#clip862)" style="stroke:#000000; stroke-linecap:round; stroke-linejoin:round; stroke-width:4; stroke-opacity:1; fill:none" points="
  700.722,1359.96 700.722,1445.72 755.38,1445.72 755.38,1359.96 700.722,1359.96 
  "/>
<path clip-path="url(#clip862)" d="
M755.38 1174.17 L755.38 1445.72 L810.039 1445.72 L810.039 1174.17 L755.38 1174.17 L755.38 1174.17  Z
  " fill="#009af9" fill-rule="evenodd" fill-opacity="1"/>
<polyline clip-path="url(#clip862)" style="stroke:#000000; stroke-linecap:round; stroke-linejoin:round; stroke-width:4; stroke-opacity:1; fill:none" points="
  755.38,1174.17 755.38,1445.72 810.039,1445.72 810.039,1174.17 755.38,1174.17 
  "/>
<path clip-path="url(#clip862)" d="
M810.039 1188.46 L810.039 1445.72 L864.697 1445.72 L864.697 1188.46 L810.039 1188.46 L810.039 1188.46  Z
  " fill="#009af9" fill-rule="evenodd" fill-opacity="1"/>
<polyline clip-path="url(#clip862)" style="stroke:#000000; stroke-linecap:round; stroke-linejoin:round; stroke-width:4; stroke-opacity:1; fill:none" points="
  810.039,1188.46 810.039,1445.72 864.697,1445.72 864.697,1188.46 810.039,1188.46 
  "/>
<path clip-path="url(#clip862)" d="
M864.697 1045.54 L864.697 1445.72 L919.355 1445.72 L919.355 1045.54 L864.697 1045.54 L864.697 1045.54  Z
  " fill="#009af9" fill-rule="evenodd" fill-opacity="1"/>
<polyline clip-path="url(#clip862)" style="stroke:#000000; stroke-linecap:round; stroke-linejoin:round; stroke-width:4; stroke-opacity:1; fill:none" points="
  864.697,1045.54 864.697,1445.72 919.355,1445.72 919.355,1045.54 864.697,1045.54 
  "/>
<path clip-path="url(#clip862)" d="
M919.355 1002.66 L919.355 1445.72 L974.013 1445.72 L974.013 1002.66 L919.355 1002.66 L919.355 1002.66  Z
  " fill="#009af9" fill-rule="evenodd" fill-opacity="1"/>
<polyline clip-path="url(#clip862)" style="stroke:#000000; stroke-linecap:round; stroke-linejoin:round; stroke-width:4; stroke-opacity:1; fill:none" points="
  919.355,1002.66 919.355,1445.72 974.013,1445.72 974.013,1002.66 919.355,1002.66 
  "/>
<path clip-path="url(#clip862)" d="
M974.013 773.992 L974.013 1445.72 L1028.67 1445.72 L1028.67 773.992 L974.013 773.992 L974.013 773.992  Z
  " fill="#009af9" fill-rule="evenodd" fill-opacity="1"/>
<polyline clip-path="url(#clip862)" style="stroke:#000000; stroke-linecap:round; stroke-linejoin:round; stroke-width:4; stroke-opacity:1; fill:none" points="
  974.013,773.992 974.013,1445.72 1028.67,1445.72 1028.67,773.992 974.013,773.992 
  "/>
<path clip-path="url(#clip862)" d="
M1028.67 702.532 L1028.67 1445.72 L1083.33 1445.72 L1083.33 702.532 L1028.67 702.532 L1028.67 702.532  Z
  " fill="#009af9" fill-rule="evenodd" fill-opacity="1"/>
<polyline clip-path="url(#clip862)" style="stroke:#000000; stroke-linecap:round; stroke-linejoin:round; stroke-width:4; stroke-opacity:1; fill:none" points="
  1028.67,702.532 1028.67,1445.72 1083.33,1445.72 1083.33,702.532 1028.67,702.532 
  "/>
<path clip-path="url(#clip862)" d="
M1083.33 573.904 L1083.33 1445.72 L1137.99 1445.72 L1137.99 573.904 L1083.33 573.904 L1083.33 573.904  Z
  " fill="#009af9" fill-rule="evenodd" fill-opacity="1"/>
<polyline clip-path="url(#clip862)" style="stroke:#000000; stroke-linecap:round; stroke-linejoin:round; stroke-width:4; stroke-opacity:1; fill:none" points="
  1083.33,573.904 1083.33,1445.72 1137.99,1445.72 1137.99,573.904 1083.33,573.904 
  "/>
<path clip-path="url(#clip862)" d="
M1137.99 602.488 L1137.99 1445.72 L1192.65 1445.72 L1192.65 602.488 L1137.99 602.488 L1137.99 602.488  Z
  " fill="#009af9" fill-rule="evenodd" fill-opacity="1"/>
<polyline clip-path="url(#clip862)" style="stroke:#000000; stroke-linecap:round; stroke-linejoin:round; stroke-width:4; stroke-opacity:1; fill:none" points="
  1137.99,602.488 1137.99,1445.72 1192.65,1445.72 1192.65,602.488 1137.99,602.488 
  "/>
<path clip-path="url(#clip862)" d="
M1192.65 588.196 L1192.65 1445.72 L1247.3 1445.72 L1247.3 588.196 L1192.65 588.196 L1192.65 588.196  Z
  " fill="#009af9" fill-rule="evenodd" fill-opacity="1"/>
<polyline clip-path="url(#clip862)" style="stroke:#000000; stroke-linecap:round; stroke-linejoin:round; stroke-width:4; stroke-opacity:1; fill:none" points="
  1192.65,588.196 1192.65,1445.72 1247.3,1445.72 1247.3,588.196 1192.65,588.196 
  "/>
<path clip-path="url(#clip862)" d="
M1247.3 545.32 L1247.3 1445.72 L1301.96 1445.72 L1301.96 545.32 L1247.3 545.32 L1247.3 545.32  Z
  " fill="#009af9" fill-rule="evenodd" fill-opacity="1"/>
<polyline clip-path="url(#clip862)" style="stroke:#000000; stroke-linecap:round; stroke-linejoin:round; stroke-width:4; stroke-opacity:1; fill:none" points="
  1247.3,545.32 1247.3,1445.72 1301.96,1445.72 1301.96,545.32 1247.3,545.32 
  "/>
<path clip-path="url(#clip862)" d="
M1301.96 245.188 L1301.96 1445.72 L1356.62 1445.72 L1356.62 245.188 L1301.96 245.188 L1301.96 245.188  Z
  " fill="#009af9" fill-rule="evenodd" fill-opacity="1"/>
<polyline clip-path="url(#clip862)" style="stroke:#000000; stroke-linecap:round; stroke-linejoin:round; stroke-width:4; stroke-opacity:1; fill:none" points="
  1301.96,245.188 1301.96,1445.72 1356.62,1445.72 1356.62,245.188 1301.96,245.188 
  "/>
<path clip-path="url(#clip862)" d="
M1356.62 87.9763 L1356.62 1445.72 L1411.28 1445.72 L1411.28 87.9763 L1356.62 87.9763 L1356.62 87.9763  Z
  " fill="#009af9" fill-rule="evenodd" fill-opacity="1"/>
<polyline clip-path="url(#clip862)" style="stroke:#000000; stroke-linecap:round; stroke-linejoin:round; stroke-width:4; stroke-opacity:1; fill:none" points="
  1356.62,87.9763 1356.62,1445.72 1411.28,1445.72 1411.28,87.9763 1356.62,87.9763 
  "/>
<path clip-path="url(#clip862)" d="
M1411.28 588.196 L1411.28 1445.72 L1465.94 1445.72 L1465.94 588.196 L1411.28 588.196 L1411.28 588.196  Z
  " fill="#009af9" fill-rule="evenodd" fill-opacity="1"/>
<polyline clip-path="url(#clip862)" style="stroke:#000000; stroke-linecap:round; stroke-linejoin:round; stroke-width:4; stroke-opacity:1; fill:none" points="
  1411.28,588.196 1411.28,1445.72 1465.94,1445.72 1465.94,588.196 1411.28,588.196 
  "/>
<path clip-path="url(#clip862)" d="
M1465.94 602.488 L1465.94 1445.72 L1520.6 1445.72 L1520.6 602.488 L1465.94 602.488 L1465.94 602.488  Z
  " fill="#009af9" fill-rule="evenodd" fill-opacity="1"/>
<polyline clip-path="url(#clip862)" style="stroke:#000000; stroke-linecap:round; stroke-linejoin:round; stroke-width:4; stroke-opacity:1; fill:none" points="
  1465.94,602.488 1465.94,1445.72 1520.6,1445.72 1520.6,602.488 1465.94,602.488 
  "/>
<path clip-path="url(#clip862)" d="
M1520.6 516.736 L1520.6 1445.72 L1575.25 1445.72 L1575.25 516.736 L1520.6 516.736 L1520.6 516.736  Z
  " fill="#009af9" fill-rule="evenodd" fill-opacity="1"/>
<polyline clip-path="url(#clip862)" style="stroke:#000000; stroke-linecap:round; stroke-linejoin:round; stroke-width:4; stroke-opacity:1; fill:none" points="
  1520.6,516.736 1520.6,1445.72 1575.25,1445.72 1575.25,516.736 1520.6,516.736 
  "/>
<path clip-path="url(#clip862)" d="
M1575.25 745.408 L1575.25 1445.72 L1629.91 1445.72 L1629.91 745.408 L1575.25 745.408 L1575.25 745.408  Z
  " fill="#009af9" fill-rule="evenodd" fill-opacity="1"/>
<polyline clip-path="url(#clip862)" style="stroke:#000000; stroke-linecap:round; stroke-linejoin:round; stroke-width:4; stroke-opacity:1; fill:none" points="
  1575.25,745.408 1575.25,1445.72 1629.91,1445.72 1629.91,745.408 1575.25,745.408 
  "/>
<path clip-path="url(#clip862)" d="
M1629.91 902.62 L1629.91 1445.72 L1684.57 1445.72 L1684.57 902.62 L1629.91 902.62 L1629.91 902.62  Z
  " fill="#009af9" fill-rule="evenodd" fill-opacity="1"/>
<polyline clip-path="url(#clip862)" style="stroke:#000000; stroke-linecap:round; stroke-linejoin:round; stroke-width:4; stroke-opacity:1; fill:none" points="
  1629.91,902.62 1629.91,1445.72 1684.57,1445.72 1684.57,902.62 1629.91,902.62 
  "/>
<path clip-path="url(#clip862)" d="
M1684.57 874.036 L1684.57 1445.72 L1739.23 1445.72 L1739.23 874.036 L1684.57 874.036 L1684.57 874.036  Z
  " fill="#009af9" fill-rule="evenodd" fill-opacity="1"/>
<polyline clip-path="url(#clip862)" style="stroke:#000000; stroke-linecap:round; stroke-linejoin:round; stroke-width:4; stroke-opacity:1; fill:none" points="
  1684.57,874.036 1684.57,1445.72 1739.23,1445.72 1739.23,874.036 1684.57,874.036 
  "/>
<path clip-path="url(#clip862)" d="
M1739.23 1188.46 L1739.23 1445.72 L1793.89 1445.72 L1793.89 1188.46 L1739.23 1188.46 L1739.23 1188.46  Z
  " fill="#009af9" fill-rule="evenodd" fill-opacity="1"/>
<polyline clip-path="url(#clip862)" style="stroke:#000000; stroke-linecap:round; stroke-linejoin:round; stroke-width:4; stroke-opacity:1; fill:none" points="
  1739.23,1188.46 1739.23,1445.72 1793.89,1445.72 1793.89,1188.46 1739.23,1188.46 
  "/>
<path clip-path="url(#clip862)" d="
M1793.89 1288.5 L1793.89 1445.72 L1848.54 1445.72 L1848.54 1288.5 L1793.89 1288.5 L1793.89 1288.5  Z
  " fill="#009af9" fill-rule="evenodd" fill-opacity="1"/>
<polyline clip-path="url(#clip862)" style="stroke:#000000; stroke-linecap:round; stroke-linejoin:round; stroke-width:4; stroke-opacity:1; fill:none" points="
  1793.89,1288.5 1793.89,1445.72 1848.54,1445.72 1848.54,1288.5 1793.89,1288.5 
  "/>
<path clip-path="url(#clip862)" d="
M1848.54 1359.96 L1848.54 1445.72 L1903.2 1445.72 L1903.2 1359.96 L1848.54 1359.96 L1848.54 1359.96  Z
  " fill="#009af9" fill-rule="evenodd" fill-opacity="1"/>
<polyline clip-path="url(#clip862)" style="stroke:#000000; stroke-linecap:round; stroke-linejoin:round; stroke-width:4; stroke-opacity:1; fill:none" points="
  1848.54,1359.96 1848.54,1445.72 1903.2,1445.72 1903.2,1359.96 1848.54,1359.96 
  "/>
<path clip-path="url(#clip862)" d="
M1903.2 1388.55 L1903.2 1445.72 L1957.86 1445.72 L1957.86 1388.55 L1903.2 1388.55 L1903.2 1388.55  Z
  " fill="#009af9" fill-rule="evenodd" fill-opacity="1"/>
<polyline clip-path="url(#clip862)" style="stroke:#000000; stroke-linecap:round; stroke-linejoin:round; stroke-width:4; stroke-opacity:1; fill:none" points="
  1903.2,1388.55 1903.2,1445.72 1957.86,1445.72 1957.86,1388.55 1903.2,1388.55 
  "/>
<path clip-path="url(#clip862)" d="
M1957.86 1359.96 L1957.86 1445.72 L2012.52 1445.72 L2012.52 1359.96 L1957.86 1359.96 L1957.86 1359.96  Z
  " fill="#009af9" fill-rule="evenodd" fill-opacity="1"/>
<polyline clip-path="url(#clip862)" style="stroke:#000000; stroke-linecap:round; stroke-linejoin:round; stroke-width:4; stroke-opacity:1; fill:none" points="
  1957.86,1359.96 1957.86,1445.72 2012.52,1445.72 2012.52,1359.96 1957.86,1359.96 
  "/>
<path clip-path="url(#clip862)" d="
M2012.52 1445.72 L2012.52 1445.72 L2067.18 1445.72 L2067.18 1445.72 L2012.52 1445.72 L2012.52 1445.72  Z
  " fill="#009af9" fill-rule="evenodd" fill-opacity="1"/>
<polyline clip-path="url(#clip862)" style="stroke:#000000; stroke-linecap:round; stroke-linejoin:round; stroke-width:4; stroke-opacity:1; fill:none" points="
  2012.52,1445.72 2012.52,1445.72 2067.18,1445.72 2012.52,1445.72 
  "/>
<path clip-path="url(#clip862)" d="
M2067.18 1417.13 L2067.18 1445.72 L2121.84 1445.72 L2121.84 1417.13 L2067.18 1417.13 L2067.18 1417.13  Z
  " fill="#009af9" fill-rule="evenodd" fill-opacity="1"/>
<polyline clip-path="url(#clip862)" style="stroke:#000000; stroke-linecap:round; stroke-linejoin:round; stroke-width:4; stroke-opacity:1; fill:none" points="
  2067.18,1417.13 2067.18,1445.72 2121.84,1445.72 2121.84,1417.13 2067.18,1417.13 
  "/>
<path clip-path="url(#clip862)" d="
M2121.84 1445.72 L2121.84 1445.72 L2176.49 1445.72 L2176.49 1445.72 L2121.84 1445.72 L2121.84 1445.72  Z
  " fill="#009af9" fill-rule="evenodd" fill-opacity="1"/>
<polyline clip-path="url(#clip862)" style="stroke:#000000; stroke-linecap:round; stroke-linejoin:round; stroke-width:4; stroke-opacity:1; fill:none" points="
  2121.84,1445.72 2121.84,1445.72 2176.49,1445.72 2121.84,1445.72 
  "/>
<path clip-path="url(#clip862)" d="
M2176.49 1431.42 L2176.49 1445.72 L2231.15 1445.72 L2231.15 1431.42 L2176.49 1431.42 L2176.49 1431.42  Z
  " fill="#009af9" fill-rule="evenodd" fill-opacity="1"/>
<polyline clip-path="url(#clip862)" style="stroke:#000000; stroke-linecap:round; stroke-linejoin:round; stroke-width:4; stroke-opacity:1; fill:none" points="
  2176.49,1431.42 2176.49,1445.72 2231.15,1445.72 2231.15,1431.42 2176.49,1431.42 
  "/>
<circle clip-path="url(#clip862)" style="fill:#009af9; stroke:none; fill-opacity:0" cx="290.786" cy="1431.42" r="2"/>
<circle clip-path="url(#clip862)" style="fill:#009af9; stroke:none; fill-opacity:0" cx="345.444" cy="1445.72" r="2"/>
<circle clip-path="url(#clip862)" style="fill:#009af9; stroke:none; fill-opacity:0" cx="400.102" cy="1431.42" r="2"/>
<circle clip-path="url(#clip862)" style="fill:#009af9; stroke:none; fill-opacity:0" cx="454.76" cy="1445.72" r="2"/>
<circle clip-path="url(#clip862)" style="fill:#009af9; stroke:none; fill-opacity:0" cx="509.419" cy="1445.72" r="2"/>
<circle clip-path="url(#clip862)" style="fill:#009af9; stroke:none; fill-opacity:0" cx="564.077" cy="1417.13" r="2"/>
<circle clip-path="url(#clip862)" style="fill:#009af9; stroke:none; fill-opacity:0" cx="618.735" cy="1331.38" r="2"/>
<circle clip-path="url(#clip862)" style="fill:#009af9; stroke:none; fill-opacity:0" cx="673.393" cy="1359.96" r="2"/>
<circle clip-path="url(#clip862)" style="fill:#009af9; stroke:none; fill-opacity:0" cx="728.051" cy="1359.96" r="2"/>
<circle clip-path="url(#clip862)" style="fill:#009af9; stroke:none; fill-opacity:0" cx="782.71" cy="1174.17" r="2"/>
<circle clip-path="url(#clip862)" style="fill:#009af9; stroke:none; fill-opacity:0" cx="837.368" cy="1188.46" r="2"/>
<circle clip-path="url(#clip862)" style="fill:#009af9; stroke:none; fill-opacity:0" cx="892.026" cy="1045.54" r="2"/>
<circle clip-path="url(#clip862)" style="fill:#009af9; stroke:none; fill-opacity:0" cx="946.684" cy="1002.66" r="2"/>
<circle clip-path="url(#clip862)" style="fill:#009af9; stroke:none; fill-opacity:0" cx="1001.34" cy="773.992" r="2"/>
<circle clip-path="url(#clip862)" style="fill:#009af9; stroke:none; fill-opacity:0" cx="1056" cy="702.532" r="2"/>
<circle clip-path="url(#clip862)" style="fill:#009af9; stroke:none; fill-opacity:0" cx="1110.66" cy="573.904" r="2"/>
<circle clip-path="url(#clip862)" style="fill:#009af9; stroke:none; fill-opacity:0" cx="1165.32" cy="602.488" r="2"/>
<circle clip-path="url(#clip862)" style="fill:#009af9; stroke:none; fill-opacity:0" cx="1219.98" cy="588.196" r="2"/>
<circle clip-path="url(#clip862)" style="fill:#009af9; stroke:none; fill-opacity:0" cx="1274.63" cy="545.32" r="2"/>
<circle clip-path="url(#clip862)" style="fill:#009af9; stroke:none; fill-opacity:0" cx="1329.29" cy="245.188" r="2"/>
<circle clip-path="url(#clip862)" style="fill:#009af9; stroke:none; fill-opacity:0" cx="1383.95" cy="87.9763" r="2"/>
<circle clip-path="url(#clip862)" style="fill:#009af9; stroke:none; fill-opacity:0" cx="1438.61" cy="588.196" r="2"/>
<circle clip-path="url(#clip862)" style="fill:#009af9; stroke:none; fill-opacity:0" cx="1493.27" cy="602.488" r="2"/>
<circle clip-path="url(#clip862)" style="fill:#009af9; stroke:none; fill-opacity:0" cx="1547.92" cy="516.736" r="2"/>
<circle clip-path="url(#clip862)" style="fill:#009af9; stroke:none; fill-opacity:0" cx="1602.58" cy="745.408" r="2"/>
<circle clip-path="url(#clip862)" style="fill:#009af9; stroke:none; fill-opacity:0" cx="1657.24" cy="902.62" r="2"/>
<circle clip-path="url(#clip862)" style="fill:#009af9; stroke:none; fill-opacity:0" cx="1711.9" cy="874.036" r="2"/>
<circle clip-path="url(#clip862)" style="fill:#009af9; stroke:none; fill-opacity:0" cx="1766.56" cy="1188.46" r="2"/>
<circle clip-path="url(#clip862)" style="fill:#009af9; stroke:none; fill-opacity:0" cx="1821.22" cy="1288.5" r="2"/>
<circle clip-path="url(#clip862)" style="fill:#009af9; stroke:none; fill-opacity:0" cx="1875.87" cy="1359.96" r="2"/>
<circle clip-path="url(#clip862)" style="fill:#009af9; stroke:none; fill-opacity:0" cx="1930.53" cy="1388.55" r="2"/>
<circle clip-path="url(#clip862)" style="fill:#009af9; stroke:none; fill-opacity:0" cx="1985.19" cy="1359.96" r="2"/>
<circle clip-path="url(#clip862)" style="fill:#009af9; stroke:none; fill-opacity:0" cx="2039.85" cy="1445.72" r="2"/>
<circle clip-path="url(#clip862)" style="fill:#009af9; stroke:none; fill-opacity:0" cx="2094.51" cy="1417.13" r="2"/>
<circle clip-path="url(#clip862)" style="fill:#009af9; stroke:none; fill-opacity:0" cx="2149.16" cy="1445.72" r="2"/>
<circle clip-path="url(#clip862)" style="fill:#009af9; stroke:none; fill-opacity:0" cx="2203.82" cy="1431.42" r="2"/>
<path clip-path="url(#clip860)" d="
M2005.54 198.898 L2279.06 198.898 L2279.06 95.2176 L2005.54 95.2176  Z
  " fill="#ffffff" fill-rule="evenodd" fill-opacity="1"/>
<polyline clip-path="url(#clip860)" style="stroke:#000000; stroke-linecap:round; stroke-linejoin:round; stroke-width:4; stroke-opacity:1; fill:none" points="
  2005.54,198.898 2279.06,198.898 2279.06,95.2176 2005.54,95.2176 2005.54,198.898 
  "/>
<path clip-path="url(#clip860)" d="
M2030.1 167.794 L2177.5 167.794 L2177.5 126.322 L2030.1 126.322 L2030.1 167.794  Z
  " fill="#009af9" fill-rule="evenodd" fill-opacity="1"/>
<polyline clip-path="url(#clip860)" style="stroke:#000000; stroke-linecap:round; stroke-linejoin:round; stroke-width:4; stroke-opacity:1; fill:none" points="
  2030.1,167.794 2177.5,167.794 2177.5,126.322 2030.1,126.322 2030.1,167.794 
  "/>
<path clip-path="url(#clip860)" d="M2215.91 166.745 Q2214.1 171.375 2212.39 172.787 Q2210.67 174.199 2207.8 174.199 L2204.4 174.199 L2204.4 170.634 L2206.9 170.634 Q2208.66 170.634 2209.63 169.8 Q2210.6 168.967 2211.79 165.865 L2212.55 163.921 L2202.06 138.412 L2206.58 138.412 L2214.68 158.689 L2222.78 138.412 L2227.29 138.412 L2215.91 166.745 Z" fill="#000000" fill-rule="evenodd" fill-opacity="1" /><path clip-path="url(#clip860)" d="M2234.59 160.402 L2242.23 160.402 L2242.23 134.037 L2233.91 135.703 L2233.91 131.444 L2242.18 129.778 L2246.85 129.778 L2246.85 160.402 L2254.49 160.402 L2254.49 164.338 L2234.59 164.338 L2234.59 160.402 Z" fill="#000000" fill-rule="evenodd" fill-opacity="1" /></svg>
